HIERARCHY
ROOT reference
{
	OFFSET 0.000000 0.000000 0.000000
	CHANNELS 6 Xposition Yposition Zposition Xrotation Yrotation Zrotation
	JOINT root
	{
		OFFSET 0.000000 89.713997 0.000000
		CHANNELS 3 Xrotation Yrotation Zrotation
		JOINT Hips
		{
			OFFSET 0.000000 0.000000 0.000000
			CHANNELS 3 Xrotation Yrotation Zrotation
			JOINT Spine
			{
				OFFSET 0.015203 -0.106537 0.014789
				CHANNELS 3 Xrotation Yrotation Zrotation
				JOINT Spine1
				{
					OFFSET -3.936841 17.402596 -5.113210
					CHANNELS 3 Xrotation Yrotation Zrotation
					JOINT Spine2
					{
						OFFSET -3.936780 16.906998 -6.575050
						CHANNELS 3 Xrotation Yrotation Zrotation
						JOINT Neck
						{
							OFFSET -5.972202 14.861298 -9.379800
							CHANNELS 3 Xrotation Yrotation Zrotation
							JOINT Head
							{
								OFFSET -3.780391 8.206940 -7.165619
								CHANNELS 3 Xrotation Yrotation Zrotation
								End Site
								{
									OFFSET 0.000000 0.100006 0.000000
								}
							}
						}
						JOINT RightShoulder
						{
							OFFSET -3.369632 14.332397 -11.871703
							CHANNELS 3 Xrotation Yrotation Zrotation
							JOINT RightArm
							{
								OFFSET 10.230198 -4.115265 -11.705299
								CHANNELS 3 Xrotation Yrotation Zrotation
								JOINT RightForearm
								{
									OFFSET -1.204574 -10.985001 -27.249599
									CHANNELS 3 Xrotation Yrotation Zrotation
									JOINT RightHand
									{
										OFFSET -11.702304 -1.528481 -21.957203
										CHANNELS 3 Xrotation Yrotation Zrotation
										End Site
										{
											OFFSET 0.000000 0.099998 0.000000
										}
									}
								}
							}
						}
						JOINT LeftShoulder
						{
							OFFSET -8.582352 15.377304 -6.898667
							CHANNELS 3 Xrotation Yrotation Zrotation
							JOINT LeftArm
							{
								OFFSET -10.923197 1.679230 11.682000
								CHANNELS 3 Xrotation Yrotation Zrotation
								JOINT LeftForearm
								{
									OFFSET 0.717096 -15.933899 24.703499
									CHANNELS 3 Xrotation Yrotation Zrotation
									JOINT LeftHand
									{
										OFFSET -7.206953 -19.199799 -14.171398
										CHANNELS 3 Xrotation Yrotation Zrotation
										End Site
										{
											OFFSET 0.000000 0.099998 0.000000
										}
									}
								}
							}
						}
					}
				}
			}
			JOINT RightUpLeg
			{
				OFFSET 7.388800 0.243271 -6.058500
				CHANNELS 3 Xrotation Yrotation Zrotation
				JOINT RightLeg
				{
					OFFSET 3.282078 -41.939499 -16.047001
					CHANNELS 3 Xrotation Yrotation Zrotation
					JOINT RightFoot
					{
						OFFSET 1.496512 -39.712399 10.782498
						CHANNELS 3 Xrotation Yrotation Zrotation
						JOINT RightToe
						{
							OFFSET 3.136249 -7.174790 -16.211903
							CHANNELS 3 Xrotation Yrotation Zrotation
							End Site
							{
								OFFSET 0.000000 0.100000 0.000000
							}
						}
					}
				}
			}
			JOINT LeftUpLeg
			{
				OFFSET -7.388800 -0.243279 6.058500
				CHANNELS 3 Xrotation Yrotation Zrotation
				JOINT LeftLeg
				{
					OFFSET -21.948999 -39.140800 -3.666056
					CHANNELS 3 Xrotation Yrotation Zrotation
					JOINT LeftFoot
					{
						OFFSET -2.933899 -39.020802 12.819502
						CHANNELS 3 Xrotation Yrotation Zrotation
						JOINT LeftToe
						{
							OFFSET -12.654602 -11.133300 -6.328578
							CHANNELS 3 Xrotation Yrotation Zrotation
							End Site
							{
								OFFSET 0.000000 0.100000 0.000000
							}
						}
					}
				}
			}
		}
	}
}
MOTION
Frames: 12
Frame Time: 0.041667
0.000000 0.000000 0.000000 -0.000000 0.000000 -0.000000 -0.000000 0.000000 -0.000000 0.000002 -0.000013 0.000002 0.000004 0.000002 -0.000004 0.000001 0.000001 0.000000 0.000012 -0.000002 0.000005 0.000010 -0.000006 0.000002 -0.000008 -0.000002 -0.000001 -0.000002 -0.000003 -0.000009 -0.000008 0.000003 0.000009 -0.000003 0.000003 0.000006 0.000003 -0.003842 0.000007 -0.000005 -0.000005 0.000000 -0.000001 -0.000002 -0.000003 -0.000002 -0.000004 -0.000003 -0.001600 -0.000003 0.000001 -0.000009 -0.000007 -0.000016 0.000004 0.000002 0.000002 0.000001 -0.000001 -0.000001 0.000002 -0.000002 -0.000002 0.000006 0.000001 0.000015 0.000003 -0.000007 0.000005 -0.000002 0.000003 0.000011 0.000005 0.000004 -0.000004 
0.000000 0.000000 0.000000 -0.000000 0.000000 -0.000000 -0.000000 0.000000 -0.000000 0.000002 -0.000013 0.000002 0.000004 0.000002 -0.000004 0.000001 0.000001 0.000000 0.000012 -0.000002 0.000005 0.000010 -0.000006 0.000002 -0.000008 -0.000002 -0.000001 -0.000002 -0.000003 -0.000009 -0.000008 0.000003 0.000009 -0.000003 0.000003 0.000006 0.000003 -0.003842 0.000007 -0.000005 -0.000005 0.000000 -0.000001 -0.000002 -0.000003 -0.000002 -0.000004 -0.000003 -0.001600 -0.000003 0.000001 -0.000009 -0.000007 -0.000016 0.000004 0.000002 0.000002 0.000001 -0.000001 -0.000001 0.000002 -0.000002 -0.000002 0.000006 0.000001 0.000015 0.000003 -0.000007 0.000005 -0.000002 0.000003 0.000011 0.000005 0.000004 -0.000004 
1.099760 0.000000 -2.014870 -0.000000 0.000000 -0.000000 0.312804 0.259014 0.321304 -0.160129 -0.060675 -0.197692 0.001041 0.041605 0.117829 0.023277 -0.000957 0.179345 0.019632 0.017389 0.120243 -0.083669 -0.053848 -0.073855 -0.100934 -0.078322 -0.192001 -0.177081 -0.076881 -0.124240 0.034741 0.112803 -0.045293 -0.040694 -0.059679 0.025831 -0.049462 -0.003757 -0.099227 -0.091771 -0.096412 -0.070967 0.398140 -0.043017 -0.290644 -0.149159 0.035724 0.027445 -0.001624 -0.045574 -0.033336 -1.741688 0.142439 -1.250023 0.354415 0.019390 0.021921 1.339803 -0.356345 0.180436 0.000003 0.000001 -0.000003 -0.266302 -3.104003 -2.587952 -1.357346 0.592834 1.558877 -4.003897 4.840623 6.970737 5.378868 -0.351625 -1.934829 
2.127060 0.000000 -3.961640 -0.000000 0.000000 -0.000000 0.621102 0.337166 0.493284 -0.294732 -0.106420 -0.363649 -0.015683 0.128745 0.246337 0.015800 0.075326 0.360861 0.015887 0.086073 0.235339 -0.130322 -0.111192 -0.122995 -0.150743 -0.169804 -0.320462 -0.245432 -0.162433 -0.155751 0.170174 0.286153 0.058614 -0.150955 -0.221636 0.095688 -0.137139 -0.000557 -0.259083 -0.206599 -0.143254 -0.176093 0.849588 -0.094375 -0.304628 -0.179337 0.042949 0.033009 -0.006719 -0.155591 -0.071315 -3.424232 0.192283 -2.323063 0.753117 0.041366 0.046442 2.501506 -0.622304 0.033789 0.000001 -0.000000 -0.000001 -0.532590 -7.301020 -4.715175 -2.976867 1.243407 3.413282 -7.121436 8.944536 11.847850 7.718618 -0.541745 0.051076 
4.039390 0.000000 -7.995100 -0.000000 0.000000 -0.000000 0.806181 -0.954801 0.288416 -0.281684 -0.106596 -0.347716 0.048761 0.430256 0.434500 0.090080 0.537015 0.553752 0.055650 0.417665 0.319103 -0.100482 0.023020 -0.162671 -0.089179 0.086926 -0.338301 -0.071053 -0.263561 0.018577 0.118821 0.700702 -0.554984 -0.216916 -0.318715 0.137368 -0.004006 -0.013287 -0.116645 -0.271688 0.056867 -0.285973 0.942180 0.037426 0.533705 0.226527 -0.054416 -0.041507 0.015831 -0.653480 -0.137361 -6.187296 1.493547 -3.758947 1.261315 0.069639 0.077471 4.716129 -1.447830 -0.996983 0.000006 -0.000004 -0.000001 0.733314 -15.370555 -5.648703 -6.761518 2.531794 7.726925 -4.459115 5.853716 9.578493 2.635855 -0.809264 6.475217 
5.140418 0.000000 -10.118100 -0.000000 0.000000 -0.000000 0.896403 -1.810700 0.216281 -0.275760 -0.103805 -0.340366 0.068324 0.568957 0.480322 0.108466 0.740747 0.587124 0.062466 0.558568 0.321612 -0.090481 0.112632 -0.215008 -0.052011 0.266208 -0.399542 0.043689 -0.293279 0.123066 -0.031615 0.879306 -1.049215 -0.113633 -0.166748 0.072069 0.143373 0.002267 0.121904 -0.238451 0.177176 -0.279746 0.787288 0.091851 1.146830 0.307160 -0.073814 -0.056238 -0.020743 -0.837836 -0.189220 -7.565314 2.250106 -4.283850 1.712602 0.094952 0.104814 5.599000 -1.904087 -1.581971 0.000003 -0.000001 0.000002 4.766899 -14.311403 -4.935241 -8.503305 3.019446 9.704393 -3.006661 6.912925 5.380125 -3.262820 -0.973915 10.362419 
6.201138 0.000000 -12.042900 -0.000000 0.000000 -0.000000 0.998508 -2.520318 0.206706 -0.269384 -0.100596 -0.332577 0.059871 0.645314 0.505467 0.091579 0.852921 0.606084 0.047893 0.635418 0.323992 -0.124844 0.174234 -0.286535 -0.080729 0.400113 -0.525419 0.155759 -0.285726 0.214644 -0.154559 1.112859 -1.346778 -0.034860 -0.051115 0.022134 0.204410 0.012482 0.222764 -0.172827 0.238607 -0.228033 0.670667 0.049965 1.664426 0.204682 -0.049153 -0.037514 -0.064535 -0.889303 -0.233103 -8.953254 2.667483 -4.816178 2.214923 0.123407 0.135022 6.347496 -2.280821 -2.121216 -0.049453 -0.004219 0.143552 9.141580 -12.922367 -3.815525 -9.578067 3.288190 10.922587 -1.024142 6.661876 2.894558 -8.842287 -1.148415 9.940659 
8.029099 0.000000 -16.058800 -0.000000 0.000000 -0.000000 1.321290 -4.053711 0.319546 -0.257278 -0.097336 -0.317644 0.002714 0.867062 0.515269 -0.004551 1.161077 0.577372 -0.027597 0.837264 0.277269 -0.243731 0.307056 -0.375589 -0.258241 0.671327 -0.702285 0.349830 -0.348247 0.396318 -0.373322 1.714642 -1.356697 -0.067194 -0.098558 0.042647 0.157648 0.005740 0.149997 -0.041387 0.168822 -0.080042 0.489357 -0.345071 2.235769 -0.036811 0.008821 0.006761 -0.135687 -0.825091 -0.212719 -11.915115 3.246330 -5.850516 3.345814 0.188399 0.202103 7.745038 -2.945987 -2.551791 0.651327 0.055615 -1.943845 18.031221 -8.740328 -0.276267 -9.714544 3.320586 11.077111 2.775752 6.283042 0.984909 -21.012730 -1.024408 4.869023 
9.086498 0.000000 -18.124001 -0.000000 0.000000 -0.000000 1.521512 -4.868646 0.381264 -0.251667 -0.094204 -0.310636 -0.026922 1.002848 0.523784 -0.055705 1.349941 0.563365 -0.068429 0.961510 0.250783 -0.282599 0.397701 -0.405690 -0.320932 0.847396 -0.745500 0.470461 -0.424446 0.520892 -0.606294 1.950037 -1.386786 -0.076964 -0.112898 0.048820 0.150741 0.011203 0.124633 -0.009161 0.114052 -0.035116 0.416837 -0.516789 2.201791 0.015644 -0.003757 -0.002875 -0.128693 -0.794748 -0.199947 -13.389346 3.704299 -6.237211 3.813362 0.215665 0.229460 8.479913 -3.339759 -2.466738 1.153761 0.128330 -1.787728 21.878913 -6.311482 2.100741 -8.630324 3.052470 9.848421 5.332082 4.847273 1.781508 -20.202509 -1.145126 5.579037 
10.014096 0.000000 -20.221399 -0.000000 0.000000 -0.000000 1.721671 -5.594066 0.443270 -0.245675 -0.092069 -0.303248 -0.049792 1.122297 0.536463 -0.096193 1.517717 0.558031 -0.101196 1.072715 0.231896 -0.310329 0.462101 -0.439209 -0.360239 0.976384 -0.795620 0.551725 -0.501136 0.612549 -0.856913 2.044859 -1.451969 -0.044042 -0.064577 0.027951 0.177445 0.014845 0.157806 0.022065 0.049074 0.010976 0.381630 -0.543199 1.969812 0.120969 -0.029031 -0.022193 -0.111859 -0.727920 -0.192353 -14.766977 4.219695 -6.528481 4.052957 0.229720 0.243400 9.258748 -3.776286 -2.388917 1.711604 0.216326 -1.440483 25.114057 -3.819611 4.703617 -6.901410 2.573372 7.885902 8.470503 3.405217 3.679983 -19.324692 -1.212925 6.096821 
11.964596 0.000000 -24.278299 -0.000000 0.000000 -0.000000 2.109880 -6.880184 0.714902 -0.233572 -0.089753 -0.288357 -0.054172 1.353244 0.536294 -0.120189 1.840040 0.511766 -0.128307 1.284419 0.170117 -0.385300 0.516322 -0.506218 -0.468448 1.099017 -0.925471 0.570355 -0.656128 0.674210 -1.326865 1.966785 -1.509443 0.050209 0.073540 -0.031886 0.247820 -0.008471 0.247692 0.087563 -0.074495 0.105379 0.464942 -0.275925 1.125931 0.214496 -0.051515 -0.039307 -0.103498 -0.559140 -0.222800 -17.219537 5.248498 -7.086857 3.794101 0.214535 0.228342 10.688568 -4.569601 -2.304643 3.313190 0.480178 -0.761455 29.556872 1.583715 9.986929 -1.930197 0.829942 2.215466 15.159706 2.559066 10.195262 -19.774569 -1.257641 5.802134 
13.098896 0.000000 -26.448103 -0.000000 0.000000 -0.000000 2.294020 -7.653797 1.093037 -0.227732 -0.087302 -0.281134 -0.037696 1.523577 0.484280 -0.111961 2.067416 0.405741 -0.131990 1.427299 0.076659 -0.409587 0.550815 -0.537960 -0.502896 1.174454 -0.977049 0.557210 -0.755296 0.692144 -1.534687 1.945126 -1.490900 0.067589 0.098980 -0.042958 0.259404 -0.018477 0.246064 0.112896 -0.110939 0.139206 0.570142 -0.071405 0.707948 0.132137 -0.031715 -0.024234 -0.115542 -0.519232 -0.259238 -18.137026 5.523180 -7.630259 3.064185 0.172092 0.185523 10.950053 -4.843873 -2.305151 4.705210 0.729627 -0.165360 30.691902 3.813882 12.241945 0.810582 -0.375216 -0.933144 17.477505 3.807066 14.420245 -19.901544 -1.277169 5.719450 
